#!OML:ASF H:\LiuWeirdWalks\Patient Classification 1\Patient 1\Session 1\male.ASF
:FULLY-SPECIFIED
:DEGREES
317
root -0.00320354 18.1155 -30.3036 5.70216 4.41575 4.45201
lowerback 4.17645 -0.491746 0.93007
upperback -0.693291 -0.386597 7.06294
thorax -3.02759 -0.14107 6.88272
lowerneck -33.2845 -1.97756 13.4443
upperneck 34.2443 -2.80059 -19.6385
head 17.7678 -2.37119 -12.7143
rclavicle -1.03368e-014 6.67916e-014
rhumerus -32.3244 -19.0921 -58.8777
rradius 28.0967
rwrist -9.8255
rhand -17.7118 -3.93644
rfingers 7.12502
rthumb 8.5485 -33.7434
lclavicle -1.03368e-014 6.67916e-014
lhumerus -35.4916 -3.28708 90.1235
lradius 35.545
lwrist 4.35975
lhand -5.18838 -2.12148
lfingers 7.12502
lthumb 20.6124 26.8041
rfemur -11.4768 0.398197 12.5788
rtibia 28.9077
rfoot -13.4601 -20.8219
rtoes -4.04815
lfemur -5.83822 -2.20533 -22.5887
ltibia 15.0132
lfoot -4.93686 16.616
ltoes -19.3702
318
root -0.00777045 18.1154 -30.2987 5.70067 4.37637 4.42706
lowerback 4.15687 -0.514298 0.850193
upperback -0.699346 -0.42234 7.04697
thorax -3.01829 -0.157877 6.91374
lowerneck -33.2807 -1.86277 13.5773
upperneck 34.2311 -2.65846 -19.7499
head 17.7979 -2.30797 -12.7772
rclavicle 2.50469e-014 9.54166e-015
rhumerus -32.3028 -19.0111 -58.9578
rradius 28.08
rwrist -9.85215
rhand -17.7187 -3.94999
rfingers 7.12502
rthumb 8.54177 -33.7572
lclavicle 2.50469e-014 9.54166e-015
lhumerus -35.4914 -3.13564 90.0594
lradius 35.5524
lwrist 4.37266
lhand -5.17598 -2.08081
lfingers 7.12502
lthumb 20.6243 26.8435
rfemur -11.4712 0.408032 12.621
rtibia 28.9051
rfoot -13.4527 -20.801
rtoes -4.07745
lfemur -5.82071 -2.20056 -22.5494
ltibia 15.0169
lfoot -4.93258 16.6575
ltoes -18.9674
319
root -0.012152 18.1152 -30.2938 5.69611 4.34272 4.40731
lowerback 4.14024 -0.529141 0.772729
upperback -0.695044 -0.448385 7.02223
thorax -3.00096 -0.17022 6.93308
lowerneck -33.3011 -1.79301 13.6475
upperneck 34.2211 -2.57484 -19.8016
head 17.8206 -2.27015 -12.807
rclavicle -7.95139e-015 3.81667e-014
rhumerus -32.2781 -18.9641 -59.0389
rradius 28.0662
rwrist -9.86759
rhand -17.6981 -3.93856
rfingers 7.12502
rthumb 8.5617 -33.745
lclavicle -7.95139e-015 3.81667e-014
lhumerus -35.4593 -3.01944 89.9936
lradius 35.5425
lwrist 4.36447
lhand -5.18046 -2.08114
lfingers 7.12502
lthumb 20.62 26.8436
rfemur -11.4606 0.405019 12.6564
rtibia 28.903
rfoot -13.4514 -20.7727
rtoes -4.09742
lfemur -5.80073 -2.19665 -22.5164
ltibia 15.0229
lfoot -4.93188 16.6941
ltoes -18.6998
320
root -0.0162951 18.115 -30.2889 5.69137 4.31576 4.387
lowerback 4.12385 -0.549728 0.697752
upperback -0.695007 -0.481503 7.00233
thorax -2.98735 -0.185996 6.95677
lowerneck -33.3126 -1.70096 13.753
upperneck 34.2001 -2.46613 -19.8818
head 17.8418 -2.22134 -12.8526
rclavicle 1.63003e-014 -4.45278e-014
rhumerus -32.2577 -18.8587 -59.1312
rradius 28.0722
rwrist -9.91662
rhand -17.6777 -3.93561
rfingers 7.12502
rthumb 8.58135 -33.7412
lclavicle 1.63003e-014 -4.45278e-014
lhumerus -35.4421 -2.89066 89.9297
lradius 35.5356
lwrist 4.34744
lhand -5.20014 -2.10195
lfingers 7.12502
lthumb 20.6011 26.8248
rfemur -11.4481 0.395194 12.692
rtibia 28.9006
rfoot -13.4611 -20.7425
rtoes -4.10005
lfemur -5.7784 -2.208 -22.4829
ltibia 15.03
lfoot -4.94032 16.7354
ltoes -18.3598
321
root -0.0203753 18.1149 -30.2837 5.68354 4.29576 4.37001
lowerback 4.1049 -0.561555 0.62288
upperback -0.690541 -0.503533 6.97288
thorax -2.96897 -0.196452 6.96919
lowerneck -33.311 -1.68452 13.7591
upperneck 34.1875 -2.44715 -19.8743
head 17.8403 -2.2122 -12.844
rclavicle -1.07344e-014 3.49861e-014
rhumerus -32.2519 -18.7996 -59.2148
rradius 28.0763
rwrist -9.92475
rhand -17.6539 -3.9207
rfingers 7.12502
rthumb 8.60434 -33.7254
lclavicle -1.07344e-014 3.49861e-014
lhumerus -35.4124 -2.8069 89.8653
lradius 35.5177
lwrist 4.31394
lhand -5.22298 -2.16972
lfingers 7.12502
lthumb 20.5792 26.7594
rfemur -11.4277 0.380794 12.7247
rtibia 28.8966
rfoot -13.48 -20.714
rtoes -4.09539
lfemur -5.75132 -2.22576 -22.4521
ltibia 15.039
lfoot -4.96279 16.7763
ltoes -18.149
322
root -0.0244298 18.1148 -30.2787 5.67819 4.27305 4.34962
lowerback 4.08691 -0.570302 0.550159
upperback -0.69312 -0.520711 6.94581
thorax -2.95901 -0.204258 6.9828
lowerneck -33.2964 -1.67414 13.763
upperneck 34.181 -2.43463 -19.8656
head 17.8369 -2.20547 -12.8354
rclavicle 6.36111e-015 -4.77083e-014
rhumerus -32.2631 -18.7131 -59.2985
rradius 28.0959
rwrist -9.94174
rhand -17.6219 -3.89909
rfingers 7.12502
rthumb 8.63524 -33.7025
lclavicle 6.36111e-015 -4.77083e-014
lhumerus -35.3951 -2.72143 89.8047
lradius 35.501
lwrist 4.27262
lhand -5.24634 -2.19956
lfingers 7.12502
lthumb 20.5567 26.732
rfemur -11.4096 0.368525 12.7608
rtibia 28.8899
rfoot -13.4996 -20.6838
rtoes -4.08407
lfemur -5.72807 -2.24617 -22.4171
ltibia 15.0518
lfoot -4.99252 16.8219
ltoes -18.1799
